<svg width="13" height="199" viewBox="0 0 13 199" fill="none" xmlns="http://www.w3.org/2000/svg">
<path opacity="0.5" d="M12.884 5.04C12.884 5.67467 12.786 6.23467 12.59 6.72C12.4033 7.21467 12.1233 7.68133 11.75 8.12L10.714 7.126C10.9847 6.78067 11.1807 6.454 11.302 6.146C11.4233 5.84733 11.484 5.49733 11.484 5.096C11.484 4.34933 11.1853 3.738 10.588 3.262C9.99068 2.786 9.07602 2.548 7.84402 2.548C6.55602 2.548 5.62735 2.73467 5.05802 3.108C4.48868 3.49067 4.20402 4.06933 4.20402 4.844C4.20402 5.432 4.33002 5.94533 4.58202 6.384L7.10202 6.384L7.10202 4.928L8.47402 4.732L8.47402 8.204L3.74201 8.204C3.10735 7.15867 2.79001 6.048 2.79002 4.872C2.79002 3.49067 3.21935 2.43133 4.07802 1.694C4.93668 0.966 6.19202 0.602 7.84402 0.602C8.89868 0.602 9.80402 0.798 10.56 1.19C11.3253 1.59133 11.904 2.128 12.296 2.8C12.688 3.472 12.884 4.21867 12.884 5.04ZM12.884 17.7717C12.884 18.6397 12.688 19.3911 12.296 20.0257C11.904 20.6604 11.33 21.1457 10.574 21.4817C9.81801 21.8271 8.90801 21.9997 7.84401 21.9997C6.78935 21.9997 5.88401 21.8271 5.12801 21.4817C4.37201 21.1364 3.79335 20.6464 3.39201 20.0117C2.99068 19.3771 2.79001 18.6304 2.79001 17.7717C2.79001 16.9037 2.98601 16.1524 3.37801 15.5177C3.77001 14.8831 4.34401 14.3931 5.10001 14.0477C5.85601 13.7024 6.76601 13.5297 7.83002 13.5297C8.87535 13.5297 9.77602 13.7024 10.532 14.0477C11.2973 14.3931 11.8807 14.8831 12.282 15.5177C12.6833 16.1617 12.884 16.9131 12.884 17.7717ZM11.47 17.7717C11.47 17.0251 11.176 16.4557 10.588 16.0637C10.0093 15.6717 9.09001 15.4757 7.83001 15.4757C5.41268 15.4757 4.20401 16.2411 4.20401 17.7717C4.20401 18.5184 4.49335 19.0831 5.07201 19.4657C5.65068 19.8577 6.57468 20.0537 7.84401 20.0537C9.10401 20.0537 10.0233 19.8577 10.602 19.4657C11.1807 19.0831 11.47 18.5184 11.47 17.7717ZM12.674 41.4574L11.204 41.2614L11.204 38.7414L3.00001 38.7414L3.00001 36.8794L11.204 36.8794L11.204 34.2754L12.674 34.2754L12.674 41.4574ZM12.884 49.8831C12.884 50.7511 12.688 51.5024 12.296 52.1371C11.904 52.7717 11.33 53.2571 10.574 53.5931C9.81801 53.9384 8.90801 54.1111 7.84401 54.1111C6.78935 54.1111 5.88401 53.9384 5.12801 53.5931C4.37201 53.2477 3.79335 52.7577 3.39201 52.1231C2.99068 51.4884 2.79001 50.7417 2.79001 49.8831C2.79001 49.0151 2.98601 48.2637 3.37801 47.6291C3.77001 46.9944 4.34401 46.5044 5.10001 46.1591C5.85601 45.8137 6.76601 45.6411 7.83001 45.6411C8.87535 45.6411 9.77601 45.8137 10.532 46.1591C11.2973 46.5044 11.8807 46.9944 12.282 47.6291C12.6833 48.2731 12.884 49.0244 12.884 49.8831ZM11.47 49.8831C11.47 49.1364 11.176 48.5671 10.588 48.1751C10.0093 47.7831 9.09001 47.5871 7.83001 47.5871C5.41268 47.5871 4.20401 48.3524 4.20401 49.8831C4.20401 50.6297 4.49335 51.1944 5.07201 51.5771C5.65068 51.9691 6.57468 52.1651 7.84401 52.1651C9.10401 52.1651 10.0233 51.9691 10.602 51.5771C11.1807 51.1944 11.47 50.6297 11.47 49.8831ZM12.674 73.5688L11.204 73.3728L11.204 70.8528L3.00001 70.8527L3.00001 68.9907L11.204 68.9907L11.204 66.3867L12.674 66.3867L12.674 73.5688ZM3.00001 84.0686L7.32601 84.0686L7.32601 80.6246L3.00001 80.6246L3.00001 78.7766L12.674 78.7766L12.674 80.6246L8.79601 80.6246L8.79601 84.0686L12.674 84.0686L12.674 85.9306L3.00001 85.9306L3.00001 84.0686ZM12.674 97.7968L11.302 97.6008L11.302 94.0308L8.60001 94.0308L8.60001 97.1388L7.22801 97.1388L7.22801 94.0308L4.38601 94.0308L4.38601 97.8528L3.00001 97.8528L3.00001 92.1828L12.674 92.1828L12.674 97.7968ZM12.674 113.963C12.674 115.204 12.4173 116.165 11.904 116.847C11.3907 117.537 10.6207 117.883 9.59401 117.883C8.52068 117.883 7.71334 117.537 7.17201 116.847C6.64001 116.156 6.37401 115.237 6.37401 114.089L6.37401 112.955L3.00001 112.955L3.00001 111.107L12.674 111.107L12.674 113.963ZM7.76001 113.949C7.76001 114.611 7.89534 115.111 8.16601 115.447C8.44601 115.783 8.92201 115.951 9.59401 115.951C10.742 115.951 11.316 115.283 11.316 113.949L11.316 112.955L7.76001 112.955L7.76001 113.949ZM6.87801 126.402L6.87801 125.226L3.00001 125.226L3.00001 123.378L12.674 123.378L12.674 126.262C12.674 128.819 11.7267 130.098 9.83201 130.098C9.18801 130.098 8.65601 129.939 8.23601 129.622C7.81601 129.305 7.47534 128.81 7.21401 128.138L3.00001 130.672L3.00001 128.544L6.87801 126.402ZM8.20801 125.226L8.20801 126.374C8.20801 126.962 8.33401 127.405 8.58601 127.704C8.84734 128.012 9.26268 128.166 9.83201 128.166C10.3547 128.166 10.7327 128.007 10.966 127.69C11.2087 127.382 11.33 126.892 11.33 126.22L11.33 125.226L8.20801 125.226ZM12.884 139.496C12.884 140.364 12.688 141.116 12.296 141.75C11.904 142.385 11.33 142.87 10.574 143.206C9.81801 143.552 8.90801 143.724 7.84401 143.724C6.78934 143.724 5.88401 143.552 5.12801 143.206C4.37201 142.861 3.79334 142.371 3.39201 141.736C2.99068 141.102 2.79001 140.355 2.79001 139.496C2.79001 138.628 2.98601 137.877 3.37801 137.242C3.77001 136.608 4.34401 136.118 5.10001 135.772C5.85601 135.427 6.76601 135.254 7.83001 135.254C8.87534 135.254 9.77601 135.427 10.532 135.772C11.2973 136.118 11.8807 136.608 12.282 137.242C12.6833 137.886 12.884 138.638 12.884 139.496ZM11.47 139.496C11.47 138.75 11.176 138.18 10.588 137.788C10.0093 137.396 9.09001 137.2 7.83001 137.2C5.41268 137.2 4.20401 137.966 4.20401 139.496C4.20401 140.243 4.49334 140.808 5.07201 141.19C5.65068 141.582 6.57468 141.778 7.84401 141.778C9.10401 141.778 10.0233 141.582 10.602 141.19C11.1807 140.808 11.47 140.243 11.47 139.496ZM4.41401 151.444C3.37801 151.444 2.59868 151.197 2.07601 150.702C1.54401 150.217 1.12868 149.517 0.830009 148.602L2.16001 148.112C2.31868 148.523 2.50068 148.831 2.70601 149.036C2.90201 149.251 3.13534 149.396 3.40601 149.47C3.68601 149.545 4.04534 149.582 4.48401 149.582L12.674 149.582L12.674 151.444L4.41401 151.444ZM12.674 163.264L11.302 163.068L11.302 159.498L8.60001 159.498L8.60001 162.606L7.22801 162.606L7.22801 159.498L4.38601 159.498L4.38601 163.32L3.00001 163.32L3.00001 157.65L12.674 157.65L12.674 163.264ZM12.884 172.592C12.884 173.18 12.8 173.693 12.632 174.132C12.464 174.57 12.2073 175 11.862 175.42L10.77 174.482C11.2273 173.912 11.456 173.315 11.456 172.69C11.456 171.971 11.1667 171.392 10.588 170.954C10.0093 170.524 9.09934 170.31 7.85801 170.31C6.64467 170.31 5.74401 170.524 5.15601 170.954C4.56801 171.383 4.27401 171.962 4.27401 172.69C4.27401 173.072 4.33934 173.413 4.47001 173.712C4.61001 174.01 4.80601 174.328 5.05801 174.664L3.96601 175.532C3.63001 175.205 3.35001 174.79 3.12601 174.286C2.90201 173.791 2.79001 173.236 2.79001 172.62C2.79001 171.78 2.98601 171.038 3.37801 170.394C3.77001 169.75 4.34401 169.25 5.10001 168.896C5.86534 168.541 6.78467 168.364 7.85801 168.364C8.91267 168.364 9.81801 168.546 10.574 168.91C11.33 169.283 11.904 169.787 12.296 170.422C12.688 171.066 12.884 171.789 12.884 172.592ZM12.674 186.932L11.204 186.736L11.204 184.216L3.00001 184.216L3.00001 182.354L11.204 182.354L11.204 179.75L12.674 179.75L12.674 186.932ZM12.884 194.652C12.884 195.334 12.786 195.926 12.59 196.43C12.394 196.934 12.0953 197.406 11.694 197.844L10.644 196.934C10.9333 196.589 11.1433 196.239 11.274 195.884C11.4047 195.539 11.47 195.166 11.47 194.764C11.47 194.316 11.3673 193.952 11.162 193.672C10.966 193.402 10.686 193.266 10.322 193.266C10.0793 193.266 9.87867 193.318 9.72001 193.42C9.56134 193.532 9.41201 193.728 9.27201 194.008C9.13201 194.288 8.97801 194.704 8.81001 195.254C8.51134 196.206 8.13801 196.92 7.69001 197.396C7.25134 197.882 6.60734 198.124 5.75801 198.124C5.17934 198.124 4.66601 197.975 4.21801 197.676C3.77001 197.387 3.42001 196.967 3.16801 196.416C2.91601 195.866 2.79001 195.212 2.79001 194.456C2.79001 193.719 2.90667 193.056 3.14001 192.468C3.38267 191.89 3.70934 191.39 4.12001 190.97L5.18401 191.922C4.86667 192.296 4.62401 192.683 4.45601 193.084C4.29734 193.486 4.21801 193.929 4.21801 194.414C4.21801 194.946 4.34401 195.376 4.59601 195.702C4.84801 196.029 5.20267 196.192 5.66001 196.192C5.94001 196.192 6.16867 196.136 6.34601 196.024C6.53267 195.912 6.69601 195.721 6.83601 195.45C6.98534 195.18 7.13934 194.788 7.29801 194.274C7.61534 193.248 7.99801 192.506 8.44601 192.048C8.89401 191.591 9.48201 191.362 10.21 191.362C10.742 191.362 11.2087 191.502 11.61 191.782C12.0113 192.062 12.324 192.45 12.548 192.944C12.772 193.448 12.884 194.018 12.884 194.652Z" fill="white"/>
</svg>
